<?xml version="1.0" encoding="utf-8" standalone="no"?>
<!DOCTYPE svg PUBLIC "-//W3C//DTD SVG 1.1//EN"
  "http://www.w3.org/Graphics/SVG/1.1/DTD/svg11.dtd">
<svg xmlns:xlink="http://www.w3.org/1999/xlink" width="460.8pt" height="345.6pt" viewBox="0 0 460.8 345.6" xmlns="http://www.w3.org/2000/svg" version="1.1">
 <metadata>
  <rdf:RDF xmlns:dc="http://purl.org/dc/elements/1.1/" xmlns:cc="http://creativecommons.org/ns#" xmlns:rdf="http://www.w3.org/1999/02/22-rdf-syntax-ns#">
   <cc:Work>
    <dc:type rdf:resource="http://purl.org/dc/dcmitype/StillImage"/>
    <dc:date>2022-12-05T22:21:21.675236</dc:date>
    <dc:format>image/svg+xml</dc:format>
    <dc:creator>
     <cc:Agent>
      <dc:title>Matplotlib v3.6.2, https://matplotlib.org/</dc:title>
     </cc:Agent>
    </dc:creator>
   </cc:Work>
  </rdf:RDF>
 </metadata>
 <defs>
  <style type="text/css">*{stroke-linejoin: round; stroke-linecap: butt}</style>
 </defs>
 <g id="figure_1">
  <g id="patch_1">
   <path d="M 0 345.6 
L 460.8 345.6 
L 460.8 0 
L 0 0 
z
" style="fill: #ffffff"/>
  </g>
  <g id="axes_1">
   <g id="patch_2">
    <path d="M 47.7125 294.514687 
L 218.210611 294.514687 
L 218.210611 36.734062 
L 47.7125 36.734062 
z
" style="fill: #ffffff"/>
   </g>
   <g id="matplotlib.axis_1">
    <g id="xtick_1">
     <g id="line2d_1">
      <defs>
       <path id="mc6e5e12995" d="M 0 0 
L 0 2 
" style="stroke: #000000; stroke-width: 0.6"/>
      </defs>
      <g>
       <use xlink:href="#mc6e5e12995" x="47.7125" y="294.514687" style="stroke: #000000; stroke-width: 0.6"/>
      </g>
     </g>
     <g id="text_1">
      <!-- Jul -->
      <g transform="translate(41.679688 307.513125) scale(0.1 -0.1)">
       <defs>
        <path id="DejaVuSans-4a" d="M 628 4666 
L 1259 4666 
L 1259 325 
Q 1259 -519 939 -900 
Q 619 -1281 -91 -1281 
L -331 -1281 
L -331 -750 
L -134 -750 
Q 284 -750 456 -515 
Q 628 -281 628 325 
L 628 4666 
z
" transform="scale(0.015625)"/>
        <path id="DejaVuSans-75" d="M 544 1381 
L 544 3500 
L 1119 3500 
L 1119 1403 
Q 1119 906 1312 657 
Q 1506 409 1894 409 
Q 2359 409 2629 706 
Q 2900 1003 2900 1516 
L 2900 3500 
L 3475 3500 
L 3475 0 
L 2900 0 
L 2900 538 
Q 2691 219 2414 64 
Q 2138 -91 1772 -91 
Q 1169 -91 856 284 
Q 544 659 544 1381 
z
M 1991 3584 
L 1991 3584 
z
" transform="scale(0.015625)"/>
        <path id="DejaVuSans-6c" d="M 603 4863 
L 1178 4863 
L 1178 0 
L 603 0 
L 603 4863 
z
" transform="scale(0.015625)"/>
       </defs>
       <use xlink:href="#DejaVuSans-4a"/>
       <use xlink:href="#DejaVuSans-75" x="29.492188"/>
       <use xlink:href="#DejaVuSans-6c" x="92.871094"/>
      </g>
     </g>
    </g>
    <g id="xtick_2">
     <g id="line2d_2">
      <g>
       <use xlink:href="#mc6e5e12995" x="81.812122" y="294.514687" style="stroke: #000000; stroke-width: 0.6"/>
      </g>
     </g>
     <g id="text_2">
      <!-- Aug -->
      <g transform="translate(72.048841 307.513125) scale(0.1 -0.1)">
       <defs>
        <path id="DejaVuSans-41" d="M 2188 4044 
L 1331 1722 
L 3047 1722 
L 2188 4044 
z
M 1831 4666 
L 2547 4666 
L 4325 0 
L 3669 0 
L 3244 1197 
L 1141 1197 
L 716 0 
L 50 0 
L 1831 4666 
z
" transform="scale(0.015625)"/>
        <path id="DejaVuSans-67" d="M 2906 1791 
Q 2906 2416 2648 2759 
Q 2391 3103 1925 3103 
Q 1463 3103 1205 2759 
Q 947 2416 947 1791 
Q 947 1169 1205 825 
Q 1463 481 1925 481 
Q 2391 481 2648 825 
Q 2906 1169 2906 1791 
z
M 3481 434 
Q 3481 -459 3084 -895 
Q 2688 -1331 1869 -1331 
Q 1566 -1331 1297 -1286 
Q 1028 -1241 775 -1147 
L 775 -588 
Q 1028 -725 1275 -790 
Q 1522 -856 1778 -856 
Q 2344 -856 2625 -561 
Q 2906 -266 2906 331 
L 2906 616 
Q 2728 306 2450 153 
Q 2172 0 1784 0 
Q 1141 0 747 490 
Q 353 981 353 1791 
Q 353 2603 747 3093 
Q 1141 3584 1784 3584 
Q 2172 3584 2450 3431 
Q 2728 3278 2906 2969 
L 2906 3500 
L 3481 3500 
L 3481 434 
z
" transform="scale(0.015625)"/>
       </defs>
       <use xlink:href="#DejaVuSans-41"/>
       <use xlink:href="#DejaVuSans-75" x="68.408203"/>
       <use xlink:href="#DejaVuSans-67" x="131.787109"/>
      </g>
      <!-- 2016 -->
      <g transform="translate(69.087122 318.710937) scale(0.1 -0.1)">
       <defs>
        <path id="DejaVuSans-32" d="M 1228 531 
L 3431 531 
L 3431 0 
L 469 0 
L 469 531 
Q 828 903 1448 1529 
Q 2069 2156 2228 2338 
Q 2531 2678 2651 2914 
Q 2772 3150 2772 3378 
Q 2772 3750 2511 3984 
Q 2250 4219 1831 4219 
Q 1534 4219 1204 4116 
Q 875 4013 500 3803 
L 500 4441 
Q 881 4594 1212 4672 
Q 1544 4750 1819 4750 
Q 2544 4750 2975 4387 
Q 3406 4025 3406 3419 
Q 3406 3131 3298 2873 
Q 3191 2616 2906 2266 
Q 2828 2175 2409 1742 
Q 1991 1309 1228 531 
z
" transform="scale(0.015625)"/>
        <path id="DejaVuSans-30" d="M 2034 4250 
Q 1547 4250 1301 3770 
Q 1056 3291 1056 2328 
Q 1056 1369 1301 889 
Q 1547 409 2034 409 
Q 2525 409 2770 889 
Q 3016 1369 3016 2328 
Q 3016 3291 2770 3770 
Q 2525 4250 2034 4250 
z
M 2034 4750 
Q 2819 4750 3233 4129 
Q 3647 3509 3647 2328 
Q 3647 1150 3233 529 
Q 2819 -91 2034 -91 
Q 1250 -91 836 529 
Q 422 1150 422 2328 
Q 422 3509 836 4129 
Q 1250 4750 2034 4750 
z
" transform="scale(0.015625)"/>
        <path id="DejaVuSans-31" d="M 794 531 
L 1825 531 
L 1825 4091 
L 703 3866 
L 703 4441 
L 1819 4666 
L 2450 4666 
L 2450 531 
L 3481 531 
L 3481 0 
L 794 0 
L 794 531 
z
" transform="scale(0.015625)"/>
        <path id="DejaVuSans-36" d="M 2113 2584 
Q 1688 2584 1439 2293 
Q 1191 2003 1191 1497 
Q 1191 994 1439 701 
Q 1688 409 2113 409 
Q 2538 409 2786 701 
Q 3034 994 3034 1497 
Q 3034 2003 2786 2293 
Q 2538 2584 2113 2584 
z
M 3366 4563 
L 3366 3988 
Q 3128 4100 2886 4159 
Q 2644 4219 2406 4219 
Q 1781 4219 1451 3797 
Q 1122 3375 1075 2522 
Q 1259 2794 1537 2939 
Q 1816 3084 2150 3084 
Q 2853 3084 3261 2657 
Q 3669 2231 3669 1497 
Q 3669 778 3244 343 
Q 2819 -91 2113 -91 
Q 1303 -91 875 529 
Q 447 1150 447 2328 
Q 447 3434 972 4092 
Q 1497 4750 2381 4750 
Q 2619 4750 2861 4703 
Q 3103 4656 3366 4563 
z
" transform="scale(0.015625)"/>
       </defs>
       <use xlink:href="#DejaVuSans-32"/>
       <use xlink:href="#DejaVuSans-30" x="63.623047"/>
       <use xlink:href="#DejaVuSans-31" x="127.246094"/>
       <use xlink:href="#DejaVuSans-36" x="190.869141"/>
      </g>
     </g>
    </g>
    <g id="xtick_3">
     <g id="line2d_3">
      <g>
       <use xlink:href="#mc6e5e12995" x="115.911745" y="294.514687" style="stroke: #000000; stroke-width: 0.6"/>
      </g>
     </g>
     <g id="text_3">
      <!-- Sep -->
      <g transform="translate(106.486745 307.513125) scale(0.1 -0.1)">
       <defs>
        <path id="DejaVuSans-53" d="M 3425 4513 
L 3425 3897 
Q 3066 4069 2747 4153 
Q 2428 4238 2131 4238 
Q 1616 4238 1336 4038 
Q 1056 3838 1056 3469 
Q 1056 3159 1242 3001 
Q 1428 2844 1947 2747 
L 2328 2669 
Q 3034 2534 3370 2195 
Q 3706 1856 3706 1288 
Q 3706 609 3251 259 
Q 2797 -91 1919 -91 
Q 1588 -91 1214 -16 
Q 841 59 441 206 
L 441 856 
Q 825 641 1194 531 
Q 1563 422 1919 422 
Q 2459 422 2753 634 
Q 3047 847 3047 1241 
Q 3047 1584 2836 1778 
Q 2625 1972 2144 2069 
L 1759 2144 
Q 1053 2284 737 2584 
Q 422 2884 422 3419 
Q 422 4038 858 4394 
Q 1294 4750 2059 4750 
Q 2388 4750 2728 4690 
Q 3069 4631 3425 4513 
z
" transform="scale(0.015625)"/>
        <path id="DejaVuSans-65" d="M 3597 1894 
L 3597 1613 
L 953 1613 
Q 991 1019 1311 708 
Q 1631 397 2203 397 
Q 2534 397 2845 478 
Q 3156 559 3463 722 
L 3463 178 
Q 3153 47 2828 -22 
Q 2503 -91 2169 -91 
Q 1331 -91 842 396 
Q 353 884 353 1716 
Q 353 2575 817 3079 
Q 1281 3584 2069 3584 
Q 2775 3584 3186 3129 
Q 3597 2675 3597 1894 
z
M 3022 2063 
Q 3016 2534 2758 2815 
Q 2500 3097 2075 3097 
Q 1594 3097 1305 2825 
Q 1016 2553 972 2059 
L 3022 2063 
z
" transform="scale(0.015625)"/>
        <path id="DejaVuSans-70" d="M 1159 525 
L 1159 -1331 
L 581 -1331 
L 581 3500 
L 1159 3500 
L 1159 2969 
Q 1341 3281 1617 3432 
Q 1894 3584 2278 3584 
Q 2916 3584 3314 3078 
Q 3713 2572 3713 1747 
Q 3713 922 3314 415 
Q 2916 -91 2278 -91 
Q 1894 -91 1617 61 
Q 1341 213 1159 525 
z
M 3116 1747 
Q 3116 2381 2855 2742 
Q 2594 3103 2138 3103 
Q 1681 3103 1420 2742 
Q 1159 2381 1159 1747 
Q 1159 1113 1420 752 
Q 1681 391 2138 391 
Q 2594 391 2855 752 
Q 3116 1113 3116 1747 
z
" transform="scale(0.015625)"/>
       </defs>
       <use xlink:href="#DejaVuSans-53"/>
       <use xlink:href="#DejaVuSans-65" x="63.476562"/>
       <use xlink:href="#DejaVuSans-70" x="125"/>
      </g>
     </g>
    </g>
    <g id="xtick_4">
     <g id="line2d_4">
      <g>
       <use xlink:href="#mc6e5e12995" x="150.011367" y="294.514687" style="stroke: #000000; stroke-width: 0.6"/>
      </g>
     </g>
     <g id="text_4">
      <!-- Oct -->
      <g transform="translate(141.366054 307.513125) scale(0.1 -0.1)">
       <defs>
        <path id="DejaVuSans-4f" d="M 2522 4238 
Q 1834 4238 1429 3725 
Q 1025 3213 1025 2328 
Q 1025 1447 1429 934 
Q 1834 422 2522 422 
Q 3209 422 3611 934 
Q 4013 1447 4013 2328 
Q 4013 3213 3611 3725 
Q 3209 4238 2522 4238 
z
M 2522 4750 
Q 3503 4750 4090 4092 
Q 4678 3434 4678 2328 
Q 4678 1225 4090 567 
Q 3503 -91 2522 -91 
Q 1538 -91 948 565 
Q 359 1222 359 2328 
Q 359 3434 948 4092 
Q 1538 4750 2522 4750 
z
" transform="scale(0.015625)"/>
        <path id="DejaVuSans-63" d="M 3122 3366 
L 3122 2828 
Q 2878 2963 2633 3030 
Q 2388 3097 2138 3097 
Q 1578 3097 1268 2742 
Q 959 2388 959 1747 
Q 959 1106 1268 751 
Q 1578 397 2138 397 
Q 2388 397 2633 464 
Q 2878 531 3122 666 
L 3122 134 
Q 2881 22 2623 -34 
Q 2366 -91 2075 -91 
Q 1284 -91 818 406 
Q 353 903 353 1747 
Q 353 2603 823 3093 
Q 1294 3584 2113 3584 
Q 2378 3584 2631 3529 
Q 2884 3475 3122 3366 
z
" transform="scale(0.015625)"/>
        <path id="DejaVuSans-74" d="M 1172 4494 
L 1172 3500 
L 2356 3500 
L 2356 3053 
L 1172 3053 
L 1172 1153 
Q 1172 725 1289 603 
Q 1406 481 1766 481 
L 2356 481 
L 2356 0 
L 1766 0 
Q 1100 0 847 248 
Q 594 497 594 1153 
L 594 3053 
L 172 3053 
L 172 3500 
L 594 3500 
L 594 4494 
L 1172 4494 
z
" transform="scale(0.015625)"/>
       </defs>
       <use xlink:href="#DejaVuSans-4f"/>
       <use xlink:href="#DejaVuSans-63" x="78.710938"/>
       <use xlink:href="#DejaVuSans-74" x="133.691406"/>
      </g>
     </g>
    </g>
    <g id="xtick_5">
     <g id="line2d_5">
      <g>
       <use xlink:href="#mc6e5e12995" x="184.110989" y="294.514687" style="stroke: #000000; stroke-width: 0.6"/>
      </g>
     </g>
     <g id="text_5">
      <!-- Nov -->
      <g transform="translate(174.351614 307.513125) scale(0.1 -0.1)">
       <defs>
        <path id="DejaVuSans-4e" d="M 628 4666 
L 1478 4666 
L 3547 763 
L 3547 4666 
L 4159 4666 
L 4159 0 
L 3309 0 
L 1241 3903 
L 1241 0 
L 628 0 
L 628 4666 
z
" transform="scale(0.015625)"/>
        <path id="DejaVuSans-6f" d="M 1959 3097 
Q 1497 3097 1228 2736 
Q 959 2375 959 1747 
Q 959 1119 1226 758 
Q 1494 397 1959 397 
Q 2419 397 2687 759 
Q 2956 1122 2956 1747 
Q 2956 2369 2687 2733 
Q 2419 3097 1959 3097 
z
M 1959 3584 
Q 2709 3584 3137 3096 
Q 3566 2609 3566 1747 
Q 3566 888 3137 398 
Q 2709 -91 1959 -91 
Q 1206 -91 779 398 
Q 353 888 353 1747 
Q 353 2609 779 3096 
Q 1206 3584 1959 3584 
z
" transform="scale(0.015625)"/>
        <path id="DejaVuSans-76" d="M 191 3500 
L 800 3500 
L 1894 563 
L 2988 3500 
L 3597 3500 
L 2284 0 
L 1503 0 
L 191 3500 
z
" transform="scale(0.015625)"/>
       </defs>
       <use xlink:href="#DejaVuSans-4e"/>
       <use xlink:href="#DejaVuSans-6f" x="74.804688"/>
       <use xlink:href="#DejaVuSans-76" x="135.986328"/>
      </g>
     </g>
    </g>
    <g id="xtick_6">
     <g id="line2d_6">
      <g>
       <use xlink:href="#mc6e5e12995" x="218.210611" y="294.514687" style="stroke: #000000; stroke-width: 0.6"/>
      </g>
     </g>
     <g id="text_6">
      <!-- Dec -->
      <g transform="translate(208.53483 307.513125) scale(0.1 -0.1)">
       <defs>
        <path id="DejaVuSans-44" d="M 1259 4147 
L 1259 519 
L 2022 519 
Q 2988 519 3436 956 
Q 3884 1394 3884 2338 
Q 3884 3275 3436 3711 
Q 2988 4147 2022 4147 
L 1259 4147 
z
M 628 4666 
L 1925 4666 
Q 3281 4666 3915 4102 
Q 4550 3538 4550 2338 
Q 4550 1131 3912 565 
Q 3275 0 1925 0 
L 628 0 
L 628 4666 
z
" transform="scale(0.015625)"/>
       </defs>
       <use xlink:href="#DejaVuSans-44"/>
       <use xlink:href="#DejaVuSans-65" x="77.001953"/>
       <use xlink:href="#DejaVuSans-63" x="138.525391"/>
      </g>
     </g>
    </g>
    <g id="text_7">
     <!-- 月 -->
     <g transform="translate(127.961556 332.570312) scale(0.1 -0.1)">
      <defs>
       <path id="HiraMaruPro-W4-6708" d="M 4781 1613 
L 4781 333 
C 4781 128 4723 77 4390 77 
C 4192 77 3994 102 3827 147 
C 3808 154 3789 154 3770 154 
C 3680 154 3597 96 3565 -38 
C 3558 -64 3558 -90 3558 -109 
C 3558 -237 3635 -314 3757 -339 
C 3962 -384 4205 -410 4454 -410 
C 5107 -410 5280 -224 5280 192 
L 5280 4595 
C 5280 4986 5088 5146 4710 5146 
L 1830 5146 
C 1446 5146 1254 4986 1254 4595 
L 1254 3552 
C 1254 1754 1114 742 410 -26 
C 365 -77 339 -141 339 -198 
C 339 -269 371 -346 442 -397 
C 499 -442 563 -461 627 -461 
C 704 -461 781 -429 838 -365 
C 1299 166 1542 806 1658 1613 
L 4781 1613 
z
M 4781 3174 
L 4781 2093 
L 1715 2093 
C 1754 2451 1754 2816 1760 3174 
L 4781 3174 
z
M 4781 3654 
L 1760 3654 
L 1760 4499 
C 1760 4627 1837 4666 1965 4666 
L 4582 4666 
C 4717 4666 4781 4627 4781 4499 
L 4781 3654 
z
" transform="scale(0.015625)"/>
      </defs>
      <use xlink:href="#HiraMaruPro-W4-6708"/>
     </g>
    </g>
   </g>
   <g id="matplotlib.axis_2">
    <g id="ytick_1">
     <g id="line2d_7">
      <defs>
       <path id="m98a8010961" d="M 0 0 
L -3.5 0 
" style="stroke: #000000; stroke-width: 0.8"/>
      </defs>
      <g>
       <use xlink:href="#m98a8010961" x="47.7125" y="288.947081" style="stroke: #000000; stroke-width: 0.8"/>
      </g>
     </g>
     <g id="text_8">
      <!-- 2.0 -->
      <g transform="translate(24.809375 292.7463) scale(0.1 -0.1)">
       <defs>
        <path id="DejaVuSans-2e" d="M 684 794 
L 1344 794 
L 1344 0 
L 684 0 
L 684 794 
z
" transform="scale(0.015625)"/>
       </defs>
       <use xlink:href="#DejaVuSans-32"/>
       <use xlink:href="#DejaVuSans-2e" x="63.623047"/>
       <use xlink:href="#DejaVuSans-30" x="95.410156"/>
      </g>
     </g>
    </g>
    <g id="ytick_2">
     <g id="line2d_8">
      <g>
       <use xlink:href="#m98a8010961" x="47.7125" y="257.867705" style="stroke: #000000; stroke-width: 0.8"/>
      </g>
     </g>
     <g id="text_9">
      <!-- 2.5 -->
      <g transform="translate(24.809375 261.666924) scale(0.1 -0.1)">
       <defs>
        <path id="DejaVuSans-35" d="M 691 4666 
L 3169 4666 
L 3169 4134 
L 1269 4134 
L 1269 2991 
Q 1406 3038 1543 3061 
Q 1681 3084 1819 3084 
Q 2600 3084 3056 2656 
Q 3513 2228 3513 1497 
Q 3513 744 3044 326 
Q 2575 -91 1722 -91 
Q 1428 -91 1123 -41 
Q 819 9 494 109 
L 494 744 
Q 775 591 1075 516 
Q 1375 441 1709 441 
Q 2250 441 2565 725 
Q 2881 1009 2881 1497 
Q 2881 1984 2565 2268 
Q 2250 2553 1709 2553 
Q 1456 2553 1204 2497 
Q 953 2441 691 2322 
L 691 4666 
z
" transform="scale(0.015625)"/>
       </defs>
       <use xlink:href="#DejaVuSans-32"/>
       <use xlink:href="#DejaVuSans-2e" x="63.623047"/>
       <use xlink:href="#DejaVuSans-35" x="95.410156"/>
      </g>
     </g>
    </g>
    <g id="ytick_3">
     <g id="line2d_9">
      <g>
       <use xlink:href="#m98a8010961" x="47.7125" y="226.788329" style="stroke: #000000; stroke-width: 0.8"/>
      </g>
     </g>
     <g id="text_10">
      <!-- 3.0 -->
      <g transform="translate(24.809375 230.587548) scale(0.1 -0.1)">
       <defs>
        <path id="DejaVuSans-33" d="M 2597 2516 
Q 3050 2419 3304 2112 
Q 3559 1806 3559 1356 
Q 3559 666 3084 287 
Q 2609 -91 1734 -91 
Q 1441 -91 1130 -33 
Q 819 25 488 141 
L 488 750 
Q 750 597 1062 519 
Q 1375 441 1716 441 
Q 2309 441 2620 675 
Q 2931 909 2931 1356 
Q 2931 1769 2642 2001 
Q 2353 2234 1838 2234 
L 1294 2234 
L 1294 2753 
L 1863 2753 
Q 2328 2753 2575 2939 
Q 2822 3125 2822 3475 
Q 2822 3834 2567 4026 
Q 2313 4219 1838 4219 
Q 1578 4219 1281 4162 
Q 984 4106 628 3988 
L 628 4550 
Q 988 4650 1302 4700 
Q 1616 4750 1894 4750 
Q 2613 4750 3031 4423 
Q 3450 4097 3450 3541 
Q 3450 3153 3228 2886 
Q 3006 2619 2597 2516 
z
" transform="scale(0.015625)"/>
       </defs>
       <use xlink:href="#DejaVuSans-33"/>
       <use xlink:href="#DejaVuSans-2e" x="63.623047"/>
       <use xlink:href="#DejaVuSans-30" x="95.410156"/>
      </g>
     </g>
    </g>
    <g id="ytick_4">
     <g id="line2d_10">
      <g>
       <use xlink:href="#m98a8010961" x="47.7125" y="195.708953" style="stroke: #000000; stroke-width: 0.8"/>
      </g>
     </g>
     <g id="text_11">
      <!-- 3.5 -->
      <g transform="translate(24.809375 199.508172) scale(0.1 -0.1)">
       <use xlink:href="#DejaVuSans-33"/>
       <use xlink:href="#DejaVuSans-2e" x="63.623047"/>
       <use xlink:href="#DejaVuSans-35" x="95.410156"/>
      </g>
     </g>
    </g>
    <g id="ytick_5">
     <g id="line2d_11">
      <g>
       <use xlink:href="#m98a8010961" x="47.7125" y="164.629577" style="stroke: #000000; stroke-width: 0.8"/>
      </g>
     </g>
     <g id="text_12">
      <!-- 4.0 -->
      <g transform="translate(24.809375 168.428796) scale(0.1 -0.1)">
       <defs>
        <path id="DejaVuSans-34" d="M 2419 4116 
L 825 1625 
L 2419 1625 
L 2419 4116 
z
M 2253 4666 
L 3047 4666 
L 3047 1625 
L 3713 1625 
L 3713 1100 
L 3047 1100 
L 3047 0 
L 2419 0 
L 2419 1100 
L 313 1100 
L 313 1709 
L 2253 4666 
z
" transform="scale(0.015625)"/>
       </defs>
       <use xlink:href="#DejaVuSans-34"/>
       <use xlink:href="#DejaVuSans-2e" x="63.623047"/>
       <use xlink:href="#DejaVuSans-30" x="95.410156"/>
      </g>
     </g>
    </g>
    <g id="ytick_6">
     <g id="line2d_12">
      <g>
       <use xlink:href="#m98a8010961" x="47.7125" y="133.550201" style="stroke: #000000; stroke-width: 0.8"/>
      </g>
     </g>
     <g id="text_13">
      <!-- 4.5 -->
      <g transform="translate(24.809375 137.34942) scale(0.1 -0.1)">
       <use xlink:href="#DejaVuSans-34"/>
       <use xlink:href="#DejaVuSans-2e" x="63.623047"/>
       <use xlink:href="#DejaVuSans-35" x="95.410156"/>
      </g>
     </g>
    </g>
    <g id="ytick_7">
     <g id="line2d_13">
      <g>
       <use xlink:href="#m98a8010961" x="47.7125" y="102.470825" style="stroke: #000000; stroke-width: 0.8"/>
      </g>
     </g>
     <g id="text_14">
      <!-- 5.0 -->
      <g transform="translate(24.809375 106.270044) scale(0.1 -0.1)">
       <use xlink:href="#DejaVuSans-35"/>
       <use xlink:href="#DejaVuSans-2e" x="63.623047"/>
       <use xlink:href="#DejaVuSans-30" x="95.410156"/>
      </g>
     </g>
    </g>
    <g id="ytick_8">
     <g id="line2d_14">
      <g>
       <use xlink:href="#m98a8010961" x="47.7125" y="71.391449" style="stroke: #000000; stroke-width: 0.8"/>
      </g>
     </g>
     <g id="text_15">
      <!-- 5.5 -->
      <g transform="translate(24.809375 75.190668) scale(0.1 -0.1)">
       <use xlink:href="#DejaVuSans-35"/>
       <use xlink:href="#DejaVuSans-2e" x="63.623047"/>
       <use xlink:href="#DejaVuSans-35" x="95.410156"/>
      </g>
     </g>
    </g>
    <g id="ytick_9">
     <g id="line2d_15">
      <g>
       <use xlink:href="#m98a8010961" x="47.7125" y="40.312073" style="stroke: #000000; stroke-width: 0.8"/>
      </g>
     </g>
     <g id="text_16">
      <!-- 6.0 -->
      <g transform="translate(24.809375 44.111292) scale(0.1 -0.1)">
       <use xlink:href="#DejaVuSans-36"/>
       <use xlink:href="#DejaVuSans-2e" x="63.623047"/>
       <use xlink:href="#DejaVuSans-30" x="95.410156"/>
      </g>
     </g>
    </g>
    <g id="text_17">
     <!-- 消費量 -->
     <g transform="translate(18.579687 180.624375) rotate(-90) scale(0.1 -0.1)">
      <defs>
       <path id="HiraMaruPro-W4-6d88" d="M 4205 3622 
L 4205 5254 
C 4205 5376 4102 5440 3955 5440 
C 3808 5440 3712 5376 3712 5254 
L 3712 3622 
L 2739 3622 
C 2368 3622 2195 3475 2195 3117 
L 2195 -346 
C 2195 -467 2291 -531 2438 -531 
C 2586 -531 2682 -467 2682 -346 
L 2682 909 
L 5338 909 
L 5338 288 
C 5338 51 5274 0 4998 0 
C 4851 0 4653 26 4518 58 
C 4499 64 4486 64 4467 64 
C 4371 64 4282 6 4256 -122 
C 4250 -147 4250 -166 4250 -186 
C 4250 -301 4320 -384 4442 -410 
C 4614 -448 4832 -467 5069 -467 
C 5581 -467 5811 -294 5811 179 
L 5811 3110 
C 5811 3469 5632 3622 5261 3622 
L 4205 3622 
z
M 2682 1331 
L 2682 2042 
L 5338 2042 
L 5338 1331 
L 2682 1331 
z
M 2682 2464 
L 2682 3027 
C 2682 3155 2746 3187 2874 3187 
L 5139 3187 
C 5267 3187 5338 3155 5338 3027 
L 5338 2464 
L 2682 2464 
z
M 2221 5190 
C 2138 5146 2099 5069 2099 4998 
C 2099 4954 2112 4915 2144 4877 
C 2342 4614 2560 4250 2694 3968 
C 2733 3885 2816 3840 2899 3840 
C 2938 3840 2982 3846 3021 3866 
C 3117 3910 3155 3994 3155 4070 
C 3155 4109 3149 4141 3136 4166 
C 3008 4454 2771 4851 2554 5133 
C 2502 5190 2438 5229 2362 5229 
C 2317 5229 2266 5216 2221 5190 
z
M 5670 5197 
C 5632 5216 5594 5222 5555 5222 
C 5472 5222 5402 5178 5363 5094 
C 5210 4768 5024 4410 4858 4173 
C 4826 4128 4813 4077 4813 4026 
C 4813 3955 4845 3891 4909 3846 
C 4947 3821 4992 3808 5037 3808 
C 5120 3808 5203 3846 5248 3917 
C 5440 4173 5638 4538 5798 4883 
C 5818 4915 5824 4954 5824 4992 
C 5824 5069 5779 5146 5670 5197 
z
M 1523 2995 
C 1274 3213 922 3482 634 3642 
C 595 3661 550 3674 506 3674 
C 429 3674 358 3642 307 3578 
C 275 3526 256 3475 256 3424 
C 256 3347 288 3283 346 3251 
C 602 3098 947 2842 1190 2624 
C 1242 2579 1299 2554 1363 2554 
C 1440 2554 1510 2586 1562 2650 
C 1600 2694 1619 2746 1619 2797 
C 1619 2874 1581 2944 1523 2995 
z
M 1459 1766 
C 1427 1779 1389 1786 1357 1786 
C 1267 1786 1184 1734 1152 1632 
C 954 1088 640 442 314 -38 
C 282 -83 262 -134 262 -179 
C 262 -256 307 -326 384 -378 
C 429 -416 486 -429 538 -429 
C 614 -429 698 -390 749 -320 
C 1101 192 1395 896 1619 1453 
C 1632 1485 1638 1517 1638 1549 
C 1638 1645 1574 1728 1459 1766 
z
M 1837 4186 
C 1882 4230 1901 4288 1901 4346 
C 1901 4410 1875 4480 1824 4538 
C 1594 4768 1235 5082 992 5242 
C 941 5274 896 5286 845 5286 
C 768 5286 698 5248 646 5190 
C 608 5146 589 5088 589 5037 
C 589 4966 621 4896 672 4858 
C 922 4691 1248 4397 1453 4192 
C 1510 4134 1587 4102 1658 4102 
C 1722 4102 1786 4128 1837 4186 
z
" transform="scale(0.015625)"/>
       <path id="HiraMaruPro-W4-8cbb" d="M 2733 5082 
C 2733 5152 2739 5222 2739 5299 
C 2739 5408 2662 5478 2522 5478 
C 2374 5478 2304 5414 2304 5299 
C 2304 5222 2304 5152 2304 5082 
L 659 5082 
C 557 5082 499 5018 499 4909 
C 499 4806 557 4736 659 4736 
L 2285 4736 
C 2278 4621 2272 4499 2253 4384 
L 1107 4384 
C 890 4384 755 4301 691 4090 
C 659 3981 621 3866 582 3750 
C 563 3693 550 3635 550 3590 
C 550 3443 659 3360 870 3360 
L 1856 3360 
C 1549 3008 1018 2784 397 2662 
C 282 2643 224 2573 224 2470 
C 224 2451 224 2426 230 2400 
C 256 2278 339 2221 454 2221 
C 480 2221 512 2227 544 2234 
C 698 2272 870 2336 1030 2413 
C 992 2240 966 2022 966 1818 
L 966 851 
C 966 525 1120 384 1485 384 
L 4915 384 
C 5280 384 5440 525 5440 851 
L 5440 2394 
C 5440 2534 5414 2637 5350 2714 
C 5357 2714 5363 2714 5376 2714 
C 5651 2714 5798 2771 5901 2957 
C 5952 3053 5984 3168 6010 3315 
C 6016 3347 6016 3373 6016 3398 
C 6016 3590 5894 3693 5645 3693 
L 4109 3693 
L 4109 4051 
L 5248 4051 
C 5619 4051 5696 4192 5696 4474 
L 5696 4653 
C 5696 4941 5619 5082 5248 5082 
L 4109 5082 
L 4109 5312 
C 4109 5421 4038 5478 3898 5478 
C 3757 5478 3686 5427 3686 5312 
L 3686 5082 
L 2733 5082 
z
M 3686 4736 
L 3686 4384 
L 2682 4384 
C 2694 4499 2707 4621 2714 4736 
L 3686 4736 
z
M 3686 3360 
L 3686 3136 
C 3686 3021 3757 2950 3898 2950 
C 4038 2950 4109 3021 4109 3136 
L 4109 3360 
L 5427 3360 
C 5517 3360 5542 3341 5542 3290 
C 5542 3283 5542 3277 5542 3270 
C 5530 3213 5517 3168 5491 3123 
C 5459 3072 5402 3059 5338 3059 
C 5254 3059 5178 3066 5107 3085 
C 5088 3091 5075 3091 5056 3091 
C 4992 3091 4934 3053 4922 2976 
C 4915 2957 4915 2944 4915 2925 
C 4915 2906 4915 2886 4928 2867 
C 4909 2867 4890 2867 4870 2867 
L 2374 2867 
C 2176 2867 1958 2842 1786 2810 
C 2016 2957 2195 3130 2317 3302 
C 2330 3322 2342 3341 2355 3360 
L 3686 3360 
z
M 3686 4051 
L 3686 3693 
L 2515 3693 
C 2560 3808 2598 3930 2624 4051 
L 3686 4051 
z
M 2195 4051 
C 2163 3930 2125 3808 2074 3693 
L 1107 3693 
C 1062 3693 1037 3712 1037 3744 
C 1037 3750 1037 3763 1043 3776 
C 1069 3834 1101 3898 1120 3968 
C 1139 4032 1178 4051 1261 4051 
L 2195 4051 
z
M 4109 4384 
L 4109 4736 
L 5107 4736 
C 5203 4736 5229 4704 5229 4621 
L 5229 4499 
C 5229 4410 5203 4384 5107 4384 
L 4109 4384 
z
M 4992 2157 
L 1414 2157 
L 1414 2362 
C 1414 2477 1472 2515 1587 2515 
L 4813 2515 
C 4934 2515 4992 2477 4992 2362 
L 4992 2157 
z
M 4992 1466 
L 1414 1466 
L 1414 1824 
L 4992 1824 
L 4992 1466 
z
M 4992 1133 
L 4992 902 
C 4992 787 4934 749 4813 749 
L 1587 749 
C 1472 749 1414 787 1414 902 
L 1414 1133 
L 4992 1133 
z
M 2157 230 
C 1715 32 1114 -115 518 -160 
C 397 -166 320 -243 320 -358 
C 320 -371 320 -384 326 -403 
C 346 -538 422 -595 550 -595 
C 563 -595 576 -595 589 -595 
C 1222 -550 1907 -358 2413 -134 
C 2490 -96 2528 -32 2528 38 
C 2528 83 2509 134 2477 179 
C 2432 230 2362 262 2285 262 
C 2240 262 2202 250 2157 230 
z
M 3981 -128 
C 4512 -371 5203 -544 5811 -595 
C 5824 -595 5837 -595 5850 -595 
C 5978 -595 6061 -531 6074 -390 
C 6080 -378 6080 -371 6080 -358 
C 6080 -250 6016 -166 5882 -154 
C 5280 -109 4672 38 4237 230 
C 4192 250 4147 262 4102 262 
C 4026 262 3955 230 3917 179 
C 3885 134 3866 90 3866 45 
C 3866 -26 3904 -90 3981 -128 
z
" transform="scale(0.015625)"/>
       <path id="HiraMaruPro-W4-91cf" d="M 2950 1037 
L 2950 730 
L 890 730 
C 806 730 755 646 755 550 
C 755 454 806 378 890 378 
L 2950 378 
L 2950 0 
L 403 0 
C 301 0 250 -77 250 -186 
C 250 -301 301 -371 403 -371 
L 5978 -371 
C 6067 -371 6125 -301 6125 -186 
C 6125 -77 6067 0 5978 0 
L 3373 0 
L 3373 378 
L 5536 378 
C 5619 378 5670 454 5670 550 
C 5670 646 5619 730 5536 730 
L 3373 730 
L 3373 1037 
L 4928 1037 
C 5261 1037 5414 1158 5414 1453 
L 5414 2298 
C 5414 2579 5261 2707 4928 2707 
L 1472 2707 
C 1146 2707 992 2579 992 2298 
L 992 1453 
C 992 1158 1146 1037 1472 1037 
L 2950 1037 
z
M 2950 2381 
L 2950 2042 
L 1421 2042 
L 1421 2253 
C 1421 2349 1478 2381 1587 2381 
L 2950 2381 
z
M 2950 1715 
L 2950 1363 
L 1587 1363 
C 1478 1363 1421 1389 1421 1485 
L 1421 1715 
L 2950 1715 
z
M 3373 1363 
L 3373 1715 
L 4986 1715 
L 4986 1485 
C 4986 1389 4928 1363 4819 1363 
L 3373 1363 
z
M 3373 2042 
L 3373 2381 
L 4819 2381 
C 4928 2381 4986 2349 4986 2253 
L 4986 2042 
L 3373 2042 
z
M 397 3373 
C 301 3373 250 3296 250 3194 
C 250 3078 301 3002 397 3002 
L 5990 3002 
C 6086 3002 6138 3078 6138 3194 
C 6138 3302 6086 3373 5990 3373 
L 397 3373 
z
M 1382 5222 
C 1056 5222 883 5088 883 4800 
L 883 4083 
C 883 3795 1056 3667 1382 3667 
L 4992 3667 
C 5325 3667 5504 3795 5504 4083 
L 5504 4800 
C 5504 5088 5325 5222 4992 5222 
L 1382 5222 
z
M 1312 4608 
L 1312 4762 
C 1312 4845 1376 4890 1485 4890 
L 4896 4890 
C 5005 4890 5075 4845 5075 4762 
L 5075 4608 
L 1312 4608 
z
M 1312 4288 
L 5075 4288 
L 5075 4122 
C 5075 4038 5005 3994 4896 3994 
L 1485 3994 
C 1376 3994 1312 4038 1312 4122 
L 1312 4288 
z
" transform="scale(0.015625)"/>
      </defs>
      <use xlink:href="#HiraMaruPro-W4-6d88"/>
      <use xlink:href="#HiraMaruPro-W4-8cbb" x="99.999985"/>
      <use xlink:href="#HiraMaruPro-W4-91cf" x="199.999969"/>
     </g>
    </g>
    <g id="text_18">
     <!-- 1e7 -->
     <g transform="translate(47.7125 33.734062) scale(0.1 -0.1)">
      <defs>
       <path id="DejaVuSans-37" d="M 525 4666 
L 3525 4666 
L 3525 4397 
L 1831 0 
L 1172 0 
L 2766 4134 
L 525 4134 
L 525 4666 
z
" transform="scale(0.015625)"/>
      </defs>
      <use xlink:href="#DejaVuSans-31"/>
      <use xlink:href="#DejaVuSans-65" x="63.623047"/>
      <use xlink:href="#DejaVuSans-37" x="125.146484"/>
     </g>
    </g>
   </g>
   <g id="line2d_16">
    <path d="M 47.7125 282.797386 
L 81.812122 177.318348 
L 115.911745 167.639291 
L 150.011367 147.223367 
L 184.110989 116.279435 
L 218.210611 48.451364 
" clip-path="url(#p0d859f0421)" style="fill: none; stroke: #1f77b4; stroke-width: 1.5; stroke-linecap: square"/>
   </g>
   <g id="patch_3">
    <path d="M 47.7125 294.514687 
L 47.7125 36.734062 
" style="fill: none; stroke: #000000; stroke-width: 0.8; stroke-linejoin: miter; stroke-linecap: square"/>
   </g>
   <g id="patch_4">
    <path d="M 218.210611 294.514687 
L 218.210611 36.734062 
" style="fill: none; stroke: #000000; stroke-width: 0.8; stroke-linejoin: miter; stroke-linecap: square"/>
   </g>
   <g id="patch_5">
    <path d="M 47.7125 294.514687 
L 218.210611 294.514687 
" style="fill: none; stroke: #000000; stroke-width: 0.8; stroke-linejoin: miter; stroke-linecap: square"/>
   </g>
   <g id="patch_6">
    <path d="M 47.7125 36.734062 
L 218.210611 36.734062 
" style="fill: none; stroke: #000000; stroke-width: 0.8; stroke-linejoin: miter; stroke-linecap: square"/>
   </g>
   <g id="text_19">
    <!-- 全消費者の月ごとの消費量 -->
    <g transform="translate(60.961556 20.135625) scale(0.12 -0.12)">
     <defs>
      <path id="HiraMaruPro-W4-5168" d="M 3392 198 
L 3392 1338 
L 5056 1338 
C 5171 1338 5229 1434 5229 1568 
C 5229 1702 5171 1786 5056 1786 
L 3392 1786 
L 3392 2733 
L 4774 2733 
C 4896 2733 4960 2829 4960 2963 
C 4960 3098 4896 3181 4774 3181 
L 1594 3181 
C 1478 3181 1414 3098 1414 2963 
C 1414 2829 1478 2733 1594 2733 
L 2906 2733 
L 2906 1786 
L 1344 1786 
C 1229 1786 1165 1702 1165 1568 
C 1165 1434 1229 1338 1344 1338 
L 2906 1338 
L 2906 198 
L 499 198 
C 384 198 320 102 320 -32 
C 320 -173 384 -269 499 -269 
L 5894 -269 
C 6010 -269 6074 -166 6074 -32 
C 6074 109 6010 198 5894 198 
L 3392 198 
z
M 2784 5222 
C 2074 4237 1197 3648 390 3264 
C 256 3200 198 3104 198 3008 
C 198 2963 211 2918 230 2874 
C 275 2784 352 2746 442 2746 
C 506 2746 570 2765 634 2797 
C 1523 3219 2515 3994 3091 4832 
C 3117 4870 3149 4890 3174 4890 
C 3200 4890 3226 4870 3258 4826 
C 3840 4038 4845 3245 5837 2765 
C 5875 2746 5914 2739 5952 2739 
C 6054 2739 6150 2803 6189 2899 
C 6208 2944 6214 2989 6214 3027 
C 6214 3130 6163 3226 6042 3277 
C 5120 3718 4230 4301 3552 5222 
C 3469 5331 3315 5389 3168 5389 
C 3021 5389 2874 5331 2784 5222 
z
" transform="scale(0.015625)"/>
      <path id="HiraMaruPro-W4-8005" d="M 3200 3411 
L 3200 4166 
L 4307 4166 
C 4435 4166 4512 4250 4512 4378 
C 4512 4506 4435 4602 4326 4602 
L 3200 4602 
L 3200 5222 
C 3200 5338 3104 5408 2963 5408 
C 2810 5408 2720 5338 2720 5222 
L 2720 4602 
L 1126 4602 
C 1018 4602 947 4512 947 4384 
C 947 4250 1018 4166 1126 4166 
L 2720 4166 
L 2720 3411 
L 525 3411 
C 410 3411 339 3315 339 3187 
C 339 3053 410 2963 525 2963 
L 3142 2963 
C 2259 2413 1171 1914 403 1683 
C 288 1651 224 1562 224 1459 
C 224 1427 230 1395 243 1363 
C 282 1254 365 1197 467 1197 
C 499 1197 538 1203 576 1216 
C 941 1344 1312 1498 1677 1683 
C 1651 1466 1626 1216 1626 1030 
L 1626 96 
C 1626 -250 1786 -390 2189 -390 
L 4813 -390 
C 5210 -390 5376 -250 5376 96 
L 5376 1869 
C 5376 2214 5210 2355 4813 2355 
L 3450 2355 
C 3219 2355 2989 2349 2758 2317 
C 3162 2483 3558 2707 3910 2963 
L 5933 2963 
C 6048 2963 6118 3053 6118 3187 
C 6118 3322 6048 3411 5933 3411 
L 4474 3411 
C 4928 3802 5325 4211 5722 4691 
C 5760 4736 5779 4787 5779 4845 
C 5779 4922 5747 4998 5664 5043 
C 5619 5075 5568 5088 5523 5088 
C 5446 5088 5382 5050 5331 4986 
C 4896 4397 4403 3872 3795 3411 
L 3200 3411 
z
M 2112 1242 
L 2112 1786 
C 2112 1914 2170 1946 2291 1946 
L 4704 1946 
C 4832 1946 4890 1914 4890 1786 
L 4890 1242 
L 2112 1242 
z
M 2112 832 
L 4890 832 
L 4890 198 
C 4890 70 4832 32 4704 32 
L 2291 32 
C 2170 32 2112 70 2112 198 
L 2112 832 
z
" transform="scale(0.015625)"/>
      <path id="HiraMaruPro-W4-306e" d="M 3488 4294 
C 4621 4256 5331 3469 5331 2387 
C 5331 1715 5037 1197 4634 896 
C 4314 659 3821 499 3354 435 
C 3206 410 3123 314 3123 186 
C 3123 166 3123 141 3130 122 
C 3155 -38 3264 -102 3398 -102 
C 3418 -102 3443 -102 3469 -96 
C 3981 -19 4442 128 4813 365 
C 5478 787 5869 1472 5869 2374 
C 5869 3782 4870 4768 3360 4768 
C 1613 4768 499 3616 499 2022 
C 499 947 1030 301 1696 301 
C 1958 301 2227 384 2432 582 
C 2656 794 2842 1082 3066 1741 
C 3290 2426 3430 3322 3488 4294 
z
M 2957 4275 
C 2912 3398 2752 2522 2554 1920 
C 2400 1453 2253 1178 2112 1043 
C 1978 909 1830 858 1683 858 
C 1344 858 1018 1261 1018 2029 
C 1018 3270 1786 4166 2957 4275 
z
" transform="scale(0.015625)"/>
      <path id="HiraMaruPro-W4-3054" d="M 4032 4179 
C 3635 4006 3277 3840 2995 3693 
C 2912 3648 2874 3571 2874 3494 
C 2874 3450 2893 3398 2918 3360 
C 2963 3302 3027 3270 3098 3270 
C 3155 3270 3226 3290 3296 3328 
C 3782 3590 4314 3904 4787 4147 
C 4915 4211 4960 4301 4960 4410 
C 4960 4442 4954 4480 4947 4518 
C 4915 4640 4806 4717 4666 4717 
C 4653 4717 4646 4717 4634 4717 
C 4237 4691 3648 4666 3014 4666 
C 2413 4666 1843 4685 1440 4717 
L 1408 4717 
C 1261 4717 1171 4640 1152 4493 
C 1152 4480 1152 4461 1152 4448 
C 1152 4314 1229 4218 1370 4198 
C 1754 4160 2278 4147 2797 4147 
C 3200 4147 3648 4173 4019 4211 
L 4032 4179 
z
M 813 1235 
C 813 749 1069 422 1542 224 
C 1926 77 2470 -6 3149 -6 
C 3974 -6 4672 58 5171 192 
C 5331 237 5427 333 5427 474 
C 5427 499 5421 531 5414 563 
C 5382 698 5293 768 5165 768 
C 5126 768 5094 762 5056 755 
C 4576 646 3904 550 3136 550 
C 2586 550 2176 602 1869 704 
C 1523 819 1350 1005 1350 1312 
C 1350 1574 1523 1850 1811 2118 
C 1869 2170 1894 2234 1894 2291 
C 1894 2355 1869 2413 1805 2464 
C 1754 2502 1696 2528 1632 2528 
C 1555 2528 1478 2496 1414 2438 
C 986 2054 813 1626 813 1235 
z
M 4416 3213 
C 4416 3155 4442 3104 4480 3059 
C 4659 2861 4851 2598 4986 2362 
C 5024 2285 5075 2253 5152 2253 
C 5274 2253 5363 2336 5363 2432 
C 5363 2515 5338 2560 5318 2598 
C 5197 2810 4966 3117 4768 3315 
C 4717 3366 4672 3386 4602 3386 
C 4499 3386 4416 3296 4416 3213 
z
M 5120 3629 
C 5120 3552 5139 3520 5197 3462 
C 5370 3277 5536 3027 5677 2784 
C 5722 2714 5766 2682 5843 2682 
C 5965 2682 6042 2784 6042 2861 
C 6042 2931 6022 2982 6003 3021 
C 5888 3226 5645 3558 5478 3718 
C 5421 3770 5376 3795 5306 3795 
C 5216 3795 5120 3712 5120 3629 
z
" transform="scale(0.015625)"/>
      <path id="HiraMaruPro-W4-3068" d="M 2899 3213 
C 2714 3750 2579 4371 2470 4979 
C 2451 5126 2342 5197 2214 5197 
C 2189 5197 2170 5197 2144 5190 
C 2016 5165 1914 5082 1914 4941 
C 1914 4922 1914 4902 1920 4883 
C 2042 4237 2195 3571 2387 2995 
C 1466 2547 928 1920 928 1274 
C 928 307 1651 -128 3219 -122 
C 3968 -122 4666 -77 5158 32 
C 5312 64 5402 173 5402 307 
C 5402 333 5402 352 5395 378 
C 5376 525 5280 608 5139 608 
C 5114 608 5088 608 5062 602 
C 4576 499 3872 429 3245 429 
C 1888 429 1478 710 1478 1267 
C 1478 1734 1914 2214 2746 2592 
C 3424 2899 4333 3194 4998 3360 
C 5146 3398 5216 3494 5216 3610 
C 5216 3642 5210 3674 5203 3706 
C 5165 3834 5082 3898 4954 3898 
C 4922 3898 4890 3891 4851 3885 
C 4282 3738 3533 3482 2899 3213 
z
" transform="scale(0.015625)"/>
     </defs>
     <use xlink:href="#HiraMaruPro-W4-5168"/>
     <use xlink:href="#HiraMaruPro-W4-6d88" x="99.999985"/>
     <use xlink:href="#HiraMaruPro-W4-8cbb" x="199.999969"/>
     <use xlink:href="#HiraMaruPro-W4-8005" x="299.999954"/>
     <use xlink:href="#HiraMaruPro-W4-306e" x="399.999939"/>
     <use xlink:href="#HiraMaruPro-W4-6708" x="499.999924"/>
     <use xlink:href="#HiraMaruPro-W4-3054" x="599.999908"/>
     <use xlink:href="#HiraMaruPro-W4-3068" x="699.999893"/>
     <use xlink:href="#HiraMaruPro-W4-306e" x="799.999878"/>
     <use xlink:href="#HiraMaruPro-W4-6d88" x="899.999863"/>
     <use xlink:href="#HiraMaruPro-W4-8cbb" x="999.999847"/>
     <use xlink:href="#HiraMaruPro-W4-91cf" x="1099.999832"/>
    </g>
   </g>
   <g id="legend_1">
    <g id="patch_7">
     <path d="M 54.7125 59.412188 
L 108 59.412188 
Q 110 59.412188 110 57.412188 
L 110 43.734062 
Q 110 41.734062 108 41.734062 
L 54.7125 41.734062 
Q 52.7125 41.734062 52.7125 43.734062 
L 52.7125 57.412188 
Q 52.7125 59.412188 54.7125 59.412188 
z
" style="fill: #ffffff; opacity: 0.8; stroke: #cccccc; stroke-linejoin: miter"/>
    </g>
    <g id="line2d_17">
     <path d="M 56.7125 49.8325 
L 66.7125 49.8325 
L 76.7125 49.8325 
" style="fill: none; stroke: #1f77b4; stroke-width: 1.5; stroke-linecap: square"/>
    </g>
    <g id="text_20">
     <!-- sum -->
     <g transform="translate(84.7125 53.3325) scale(0.1 -0.1)">
      <defs>
       <path id="DejaVuSans-73" d="M 2834 3397 
L 2834 2853 
Q 2591 2978 2328 3040 
Q 2066 3103 1784 3103 
Q 1356 3103 1142 2972 
Q 928 2841 928 2578 
Q 928 2378 1081 2264 
Q 1234 2150 1697 2047 
L 1894 2003 
Q 2506 1872 2764 1633 
Q 3022 1394 3022 966 
Q 3022 478 2636 193 
Q 2250 -91 1575 -91 
Q 1294 -91 989 -36 
Q 684 19 347 128 
L 347 722 
Q 666 556 975 473 
Q 1284 391 1588 391 
Q 1994 391 2212 530 
Q 2431 669 2431 922 
Q 2431 1156 2273 1281 
Q 2116 1406 1581 1522 
L 1381 1569 
Q 847 1681 609 1914 
Q 372 2147 372 2553 
Q 372 3047 722 3315 
Q 1072 3584 1716 3584 
Q 2034 3584 2315 3537 
Q 2597 3491 2834 3397 
z
" transform="scale(0.015625)"/>
       <path id="DejaVuSans-6d" d="M 3328 2828 
Q 3544 3216 3844 3400 
Q 4144 3584 4550 3584 
Q 5097 3584 5394 3201 
Q 5691 2819 5691 2113 
L 5691 0 
L 5113 0 
L 5113 2094 
Q 5113 2597 4934 2840 
Q 4756 3084 4391 3084 
Q 3944 3084 3684 2787 
Q 3425 2491 3425 1978 
L 3425 0 
L 2847 0 
L 2847 2094 
Q 2847 2600 2669 2842 
Q 2491 3084 2119 3084 
Q 1678 3084 1418 2786 
Q 1159 2488 1159 1978 
L 1159 0 
L 581 0 
L 581 3500 
L 1159 3500 
L 1159 2956 
Q 1356 3278 1631 3431 
Q 1906 3584 2284 3584 
Q 2666 3584 2933 3390 
Q 3200 3197 3328 2828 
z
" transform="scale(0.015625)"/>
      </defs>
      <use xlink:href="#DejaVuSans-73"/>
      <use xlink:href="#DejaVuSans-75" x="52.099609"/>
      <use xlink:href="#DejaVuSans-6d" x="115.478516"/>
     </g>
    </g>
   </g>
  </g>
  <g id="axes_2">
   <g id="patch_8">
    <path d="M 275.598893 294.514687 
L 446.097004 294.514687 
L 446.097004 36.734062 
L 275.598893 36.734062 
z
" style="fill: #ffffff"/>
   </g>
   <g id="matplotlib.axis_3">
    <g id="xtick_7">
     <g id="line2d_18">
      <defs>
       <path id="m0b15d11d3b" d="M 0 0 
L 0 3.5 
" style="stroke: #000000; stroke-width: 0.8"/>
      </defs>
      <g>
       <use xlink:href="#m0b15d11d3b" x="283.348807" y="294.514687" style="stroke: #000000; stroke-width: 0.8"/>
      </g>
     </g>
     <g id="text_21">
      <!-- 01 -->
      <g transform="translate(276.986307 309.113125) scale(0.1 -0.1)">
       <use xlink:href="#DejaVuSans-30"/>
       <use xlink:href="#DejaVuSans-31" x="63.623047"/>
      </g>
     </g>
    </g>
    <g id="xtick_8">
     <g id="line2d_19">
      <g>
       <use xlink:href="#m0b15d11d3b" x="304.015245" y="294.514687" style="stroke: #000000; stroke-width: 0.8"/>
      </g>
     </g>
     <g id="text_22">
      <!-- 05 -->
      <g transform="translate(297.652745 309.113125) scale(0.1 -0.1)">
       <use xlink:href="#DejaVuSans-30"/>
       <use xlink:href="#DejaVuSans-35" x="63.623047"/>
      </g>
     </g>
    </g>
    <g id="xtick_9">
     <g id="line2d_20">
      <g>
       <use xlink:href="#m0b15d11d3b" x="324.681682" y="294.514687" style="stroke: #000000; stroke-width: 0.8"/>
      </g>
     </g>
     <g id="text_23">
      <!-- 09 -->
      <g transform="translate(318.319182 309.113125) scale(0.1 -0.1)">
       <defs>
        <path id="DejaVuSans-39" d="M 703 97 
L 703 672 
Q 941 559 1184 500 
Q 1428 441 1663 441 
Q 2288 441 2617 861 
Q 2947 1281 2994 2138 
Q 2813 1869 2534 1725 
Q 2256 1581 1919 1581 
Q 1219 1581 811 2004 
Q 403 2428 403 3163 
Q 403 3881 828 4315 
Q 1253 4750 1959 4750 
Q 2769 4750 3195 4129 
Q 3622 3509 3622 2328 
Q 3622 1225 3098 567 
Q 2575 -91 1691 -91 
Q 1453 -91 1209 -44 
Q 966 3 703 97 
z
M 1959 2075 
Q 2384 2075 2632 2365 
Q 2881 2656 2881 3163 
Q 2881 3666 2632 3958 
Q 2384 4250 1959 4250 
Q 1534 4250 1286 3958 
Q 1038 3666 1038 3163 
Q 1038 2656 1286 2365 
Q 1534 2075 1959 2075 
z
" transform="scale(0.015625)"/>
       </defs>
       <use xlink:href="#DejaVuSans-30"/>
       <use xlink:href="#DejaVuSans-39" x="63.623047"/>
      </g>
     </g>
    </g>
    <g id="xtick_10">
     <g id="line2d_21">
      <g>
       <use xlink:href="#m0b15d11d3b" x="345.34812" y="294.514687" style="stroke: #000000; stroke-width: 0.8"/>
      </g>
     </g>
     <g id="text_24">
      <!-- 13 -->
      <g transform="translate(338.98562 309.113125) scale(0.1 -0.1)">
       <use xlink:href="#DejaVuSans-31"/>
       <use xlink:href="#DejaVuSans-33" x="63.623047"/>
      </g>
     </g>
    </g>
    <g id="xtick_11">
     <g id="line2d_22">
      <g>
       <use xlink:href="#m0b15d11d3b" x="366.014558" y="294.514687" style="stroke: #000000; stroke-width: 0.8"/>
      </g>
     </g>
     <g id="text_25">
      <!-- 17 -->
      <g transform="translate(359.652058 309.113125) scale(0.1 -0.1)">
       <use xlink:href="#DejaVuSans-31"/>
       <use xlink:href="#DejaVuSans-37" x="63.623047"/>
      </g>
     </g>
    </g>
    <g id="xtick_12">
     <g id="line2d_23">
      <g>
       <use xlink:href="#m0b15d11d3b" x="386.680996" y="294.514687" style="stroke: #000000; stroke-width: 0.8"/>
      </g>
     </g>
     <g id="text_26">
      <!-- 21 -->
      <g transform="translate(380.318496 309.113125) scale(0.1 -0.1)">
       <use xlink:href="#DejaVuSans-32"/>
       <use xlink:href="#DejaVuSans-31" x="63.623047"/>
      </g>
     </g>
    </g>
    <g id="xtick_13">
     <g id="line2d_24">
      <g>
       <use xlink:href="#m0b15d11d3b" x="407.347433" y="294.514687" style="stroke: #000000; stroke-width: 0.8"/>
      </g>
     </g>
     <g id="text_27">
      <!-- 25 -->
      <g transform="translate(400.984933 309.113125) scale(0.1 -0.1)">
       <use xlink:href="#DejaVuSans-32"/>
       <use xlink:href="#DejaVuSans-35" x="63.623047"/>
      </g>
     </g>
    </g>
    <g id="xtick_14">
     <g id="line2d_25">
      <g>
       <use xlink:href="#m0b15d11d3b" x="428.013871" y="294.514687" style="stroke: #000000; stroke-width: 0.8"/>
      </g>
     </g>
     <g id="text_28">
      <!-- 29 -->
      <g transform="translate(421.651371 309.113125) scale(0.1 -0.1)">
       <use xlink:href="#DejaVuSans-32"/>
       <use xlink:href="#DejaVuSans-39" x="63.623047"/>
      </g>
     </g>
    </g>
    <g id="xtick_15">
     <g id="line2d_26">
      <g>
       <use xlink:href="#m0b15d11d3b" x="443.513699" y="294.514687" style="stroke: #000000; stroke-width: 0.8"/>
      </g>
     </g>
     <g id="text_29">
      <!-- 01 -->
      <g transform="translate(437.151199 309.113125) scale(0.1 -0.1)">
       <use xlink:href="#DejaVuSans-30"/>
       <use xlink:href="#DejaVuSans-31" x="63.623047"/>
      </g>
     </g>
    </g>
    <g id="text_30">
     <!-- 日 -->
     <g transform="translate(355.847948 322.9725) scale(0.1 -0.1)">
      <defs>
       <path id="HiraMaruPro-W4-65e5" d="M 5478 4493 
C 5478 4909 5280 5082 4883 5082 
L 1517 5082 
C 1120 5082 922 4909 922 4493 
L 922 371 
C 922 -38 1120 -211 1517 -211 
L 4883 -211 
C 5280 -211 5478 -38 5478 371 
L 5478 4493 
z
M 1434 2765 
L 1434 4403 
C 1434 4550 1510 4595 1651 4595 
L 4749 4595 
C 4890 4595 4966 4550 4966 4403 
L 4966 2765 
L 1434 2765 
z
M 1434 2285 
L 4966 2285 
L 4966 467 
C 4966 320 4890 275 4749 275 
L 1651 275 
C 1510 275 1434 320 1434 467 
L 1434 2285 
z
" transform="scale(0.015625)"/>
      </defs>
      <use xlink:href="#HiraMaruPro-W4-65e5"/>
     </g>
    </g>
   </g>
   <g id="matplotlib.axis_4">
    <g id="ytick_10">
     <g id="line2d_27">
      <g>
       <use xlink:href="#m98a8010961" x="275.598893" y="289.938784" style="stroke: #000000; stroke-width: 0.8"/>
      </g>
     </g>
     <g id="text_31">
      <!-- 1.6 -->
      <g transform="translate(252.695768 293.738003) scale(0.1 -0.1)">
       <use xlink:href="#DejaVuSans-31"/>
       <use xlink:href="#DejaVuSans-2e" x="63.623047"/>
       <use xlink:href="#DejaVuSans-36" x="95.410156"/>
      </g>
     </g>
    </g>
    <g id="ytick_11">
     <g id="line2d_28">
      <g>
       <use xlink:href="#m98a8010961" x="275.598893" y="237.574819" style="stroke: #000000; stroke-width: 0.8"/>
      </g>
     </g>
     <g id="text_32">
      <!-- 1.8 -->
      <g transform="translate(252.695768 241.374038) scale(0.1 -0.1)">
       <defs>
        <path id="DejaVuSans-38" d="M 2034 2216 
Q 1584 2216 1326 1975 
Q 1069 1734 1069 1313 
Q 1069 891 1326 650 
Q 1584 409 2034 409 
Q 2484 409 2743 651 
Q 3003 894 3003 1313 
Q 3003 1734 2745 1975 
Q 2488 2216 2034 2216 
z
M 1403 2484 
Q 997 2584 770 2862 
Q 544 3141 544 3541 
Q 544 4100 942 4425 
Q 1341 4750 2034 4750 
Q 2731 4750 3128 4425 
Q 3525 4100 3525 3541 
Q 3525 3141 3298 2862 
Q 3072 2584 2669 2484 
Q 3125 2378 3379 2068 
Q 3634 1759 3634 1313 
Q 3634 634 3220 271 
Q 2806 -91 2034 -91 
Q 1263 -91 848 271 
Q 434 634 434 1313 
Q 434 1759 690 2068 
Q 947 2378 1403 2484 
z
M 1172 3481 
Q 1172 3119 1398 2916 
Q 1625 2713 2034 2713 
Q 2441 2713 2670 2916 
Q 2900 3119 2900 3481 
Q 2900 3844 2670 4047 
Q 2441 4250 2034 4250 
Q 1625 4250 1398 4047 
Q 1172 3844 1172 3481 
z
" transform="scale(0.015625)"/>
       </defs>
       <use xlink:href="#DejaVuSans-31"/>
       <use xlink:href="#DejaVuSans-2e" x="63.623047"/>
       <use xlink:href="#DejaVuSans-38" x="95.410156"/>
      </g>
     </g>
    </g>
    <g id="ytick_12">
     <g id="line2d_29">
      <g>
       <use xlink:href="#m98a8010961" x="275.598893" y="185.210854" style="stroke: #000000; stroke-width: 0.8"/>
      </g>
     </g>
     <g id="text_33">
      <!-- 2.0 -->
      <g transform="translate(252.695768 189.010073) scale(0.1 -0.1)">
       <use xlink:href="#DejaVuSans-32"/>
       <use xlink:href="#DejaVuSans-2e" x="63.623047"/>
       <use xlink:href="#DejaVuSans-30" x="95.410156"/>
      </g>
     </g>
    </g>
    <g id="ytick_13">
     <g id="line2d_30">
      <g>
       <use xlink:href="#m98a8010961" x="275.598893" y="132.846889" style="stroke: #000000; stroke-width: 0.8"/>
      </g>
     </g>
     <g id="text_34">
      <!-- 2.2 -->
      <g transform="translate(252.695768 136.646108) scale(0.1 -0.1)">
       <use xlink:href="#DejaVuSans-32"/>
       <use xlink:href="#DejaVuSans-2e" x="63.623047"/>
       <use xlink:href="#DejaVuSans-32" x="95.410156"/>
      </g>
     </g>
    </g>
    <g id="ytick_14">
     <g id="line2d_31">
      <g>
       <use xlink:href="#m98a8010961" x="275.598893" y="80.482925" style="stroke: #000000; stroke-width: 0.8"/>
      </g>
     </g>
     <g id="text_35">
      <!-- 2.4 -->
      <g transform="translate(252.695768 84.282143) scale(0.1 -0.1)">
       <use xlink:href="#DejaVuSans-32"/>
       <use xlink:href="#DejaVuSans-2e" x="63.623047"/>
       <use xlink:href="#DejaVuSans-34" x="95.410156"/>
      </g>
     </g>
    </g>
    <g id="text_36">
     <!-- 消費量 -->
     <g transform="translate(246.46608 180.624375) rotate(-90) scale(0.1 -0.1)">
      <use xlink:href="#HiraMaruPro-W4-6d88"/>
      <use xlink:href="#HiraMaruPro-W4-8cbb" x="99.999985"/>
      <use xlink:href="#HiraMaruPro-W4-91cf" x="199.999969"/>
     </g>
    </g>
    <g id="text_37">
     <!-- 1e6 -->
     <g transform="translate(275.598893 33.734062) scale(0.1 -0.1)">
      <use xlink:href="#DejaVuSans-31"/>
      <use xlink:href="#DejaVuSans-65" x="63.623047"/>
      <use xlink:href="#DejaVuSans-36" x="125.146484"/>
     </g>
    </g>
   </g>
   <g id="line2d_32">
    <path d="M 283.348807 272.572013 
L 288.515416 260.166466 
L 293.682026 262.833101 
L 298.848635 282.797386 
L 304.015245 282.676949 
L 309.181854 244.494193 
L 314.348463 234.368573 
L 319.515073 259.290417 
L 324.681682 250.276222 
L 329.848292 275.409355 
L 335.014901 272.83776 
L 340.181511 260.763939 
L 345.34812 191.474894 
L 350.51473 212.940977 
L 355.681339 222.276687 
L 360.847948 266.371334 
L 366.014558 251.601816 
L 371.181167 241.71419 
L 376.347777 196.451303 
L 381.514386 171.340425 
L 386.680996 138.30688 
L 391.847605 221.217364 
L 397.014214 207.893091 
L 402.180824 135.951549 
L 407.347433 105.970823 
L 412.514043 48.451364 
L 417.680652 189.255971 
L 422.847262 203.5351 
L 428.013871 155.357896 
L 433.180481 134.705287 
L 438.34709 154.709107 
" clip-path="url(#pff054ffdf4)" style="fill: none; stroke: #1f77b4; stroke-width: 1.5; stroke-linecap: square"/>
   </g>
   <g id="patch_9">
    <path d="M 275.598893 294.514687 
L 275.598893 36.734063 
" style="fill: none; stroke: #000000; stroke-width: 0.8; stroke-linejoin: miter; stroke-linecap: square"/>
   </g>
   <g id="patch_10">
    <path d="M 446.097004 294.514687 
L 446.097004 36.734063 
" style="fill: none; stroke: #000000; stroke-width: 0.8; stroke-linejoin: miter; stroke-linecap: square"/>
   </g>
   <g id="patch_11">
    <path d="M 275.598893 294.514687 
L 446.097004 294.514687 
" style="fill: none; stroke: #000000; stroke-width: 0.8; stroke-linejoin: miter; stroke-linecap: square"/>
   </g>
   <g id="patch_12">
    <path d="M 275.598893 36.734062 
L 446.097004 36.734062 
" style="fill: none; stroke: #000000; stroke-width: 0.8; stroke-linejoin: miter; stroke-linecap: square"/>
   </g>
   <g id="text_38">
    <!-- 全消費者の12月の消費量 -->
    <g transform="translate(293.023573 20.135625) scale(0.12 -0.12)">
     <defs>
      <path id="HiraMaruPro-W4-31" d="M 2554 4333 
C 2554 4800 2438 4941 2016 4941 
C 1997 4941 1978 4941 1958 4941 
L 1139 4922 
C 966 4915 858 4781 858 4614 
C 858 4461 973 4326 1139 4326 
C 1146 4326 1146 4326 1152 4326 
L 1754 4346 
C 1760 4346 1773 4346 1779 4346 
C 1914 4346 1946 4294 1946 4154 
L 1946 186 
C 1946 6 2067 -83 2246 -83 
C 2419 -83 2554 6 2554 192 
L 2554 4333 
z
" transform="scale(0.015625)"/>
      <path id="HiraMaruPro-W4-32" d="M 986 512 
C 1139 1088 1549 1510 2259 1958 
L 2682 2214 
C 3264 2579 3757 2931 3757 3712 
C 3757 4525 3136 5030 2163 5030 
C 1536 5030 1133 4851 845 4570 
C 627 4352 486 4064 422 3789 
C 416 3757 410 3725 410 3693 
C 410 3552 512 3462 653 3430 
C 685 3424 717 3424 749 3424 
C 877 3424 992 3482 1030 3622 
C 1146 4070 1382 4499 2131 4499 
C 2733 4499 3130 4205 3130 3731 
C 3130 3245 2861 2995 2234 2586 
L 1792 2298 
C 1190 1907 806 1510 576 1069 
C 474 883 333 563 333 339 
C 333 83 474 -45 717 -45 
L 3629 -45 
C 3782 -45 3866 90 3866 243 
C 3866 397 3782 512 3629 512 
L 986 512 
z
" transform="scale(0.015625)"/>
     </defs>
     <use xlink:href="#HiraMaruPro-W4-5168"/>
     <use xlink:href="#HiraMaruPro-W4-6d88" x="99.999985"/>
     <use xlink:href="#HiraMaruPro-W4-8cbb" x="199.999969"/>
     <use xlink:href="#HiraMaruPro-W4-8005" x="299.999954"/>
     <use xlink:href="#HiraMaruPro-W4-306e" x="399.999939"/>
     <use xlink:href="#HiraMaruPro-W4-31" x="499.999924"/>
     <use xlink:href="#HiraMaruPro-W4-32" x="565.199921"/>
     <use xlink:href="#HiraMaruPro-W4-6708" x="630.399918"/>
     <use xlink:href="#HiraMaruPro-W4-306e" x="730.399902"/>
     <use xlink:href="#HiraMaruPro-W4-6d88" x="830.399887"/>
     <use xlink:href="#HiraMaruPro-W4-8cbb" x="930.399872"/>
     <use xlink:href="#HiraMaruPro-W4-91cf" x="1030.399857"/>
    </g>
   </g>
   <g id="legend_2">
    <g id="patch_13">
     <path d="M 282.598893 59.412188 
L 335.886393 59.412188 
Q 337.886393 59.412188 337.886393 57.412188 
L 337.886393 43.734062 
Q 337.886393 41.734062 335.886393 41.734062 
L 282.598893 41.734062 
Q 280.598893 41.734062 280.598893 43.734062 
L 280.598893 57.412188 
Q 280.598893 59.412188 282.598893 59.412188 
z
" style="fill: #ffffff; opacity: 0.8; stroke: #cccccc; stroke-linejoin: miter"/>
    </g>
    <g id="line2d_33">
     <path d="M 284.598893 49.8325 
L 294.598893 49.8325 
L 304.598893 49.8325 
" style="fill: none; stroke: #1f77b4; stroke-width: 1.5; stroke-linecap: square"/>
    </g>
    <g id="text_39">
     <!-- sum -->
     <g transform="translate(312.598893 53.3325) scale(0.1 -0.1)">
      <use xlink:href="#DejaVuSans-73"/>
      <use xlink:href="#DejaVuSans-75" x="52.099609"/>
      <use xlink:href="#DejaVuSans-6d" x="115.478516"/>
     </g>
    </g>
   </g>
  </g>
 </g>
 <defs>
  <clipPath id="p0d859f0421">
   <rect x="47.7125" y="36.734062" width="170.498111" height="257.780625"/>
  </clipPath>
  <clipPath id="pff054ffdf4">
   <rect x="275.598893" y="36.734062" width="170.498111" height="257.780625"/>
  </clipPath>
 </defs>
</svg>
